M48
; DRILL file {KiCad 5.1.10-88a1d61d58~88~ubuntu20.04.1} date Tue May 25 18:48:36 2021
; FORMAT={-:-/ absolute / inch / decimal}
; #@! TF.CreationDate,2021-05-25T18:48:36+07:00
; #@! TF.GenerationSoftware,Kicad,Pcbnew,5.1.10-88a1d61d58~88~ubuntu20.04.1
FMAT,2
INCH
T1C0.0157
T2C0.0394
T3C0.1260
%
G90
G05
T1
X4.3216Y-2.6268
X4.3279Y-2.991
X4.3279Y-2.802
X4.3279Y-2.5644
X4.3283Y-3.3066
X4.3284Y-2.6855
X4.3287Y-3.3665
X4.3287Y-3.1773
X4.3295Y-2.8655
X4.3304Y-2.933
X4.3304Y-2.7444
X4.3307Y-3.0533
X4.3307Y-3.1202
X4.3307Y-3.2403
X4.3307Y-3.4294
X4.35Y-2.53
X4.3503Y-2.5998
X4.3541Y-3.3363
X4.3553Y-2.6568
X4.3562Y-2.7146
X4.3566Y-2.837
X4.3567Y-2.7748
X4.358Y-3.1495
X4.3583Y-2.9017
X4.3583Y-3.2088
X4.3583Y-3.2779
X4.3583Y-3.398
X4.3586Y-3.0913
X4.3617Y-2.9568
X4.3726Y-3.0261
T2
X5.1831Y-1.5335
X5.1831Y-1.6335
X5.1831Y-1.7335
X5.1831Y-1.8335
X5.1831Y-1.9335
X5.1831Y-2.0335
X5.1831Y-2.1335
X5.1831Y-2.2335
X5.1831Y-2.3335
X5.1831Y-2.4335
X5.1831Y-2.5335
X5.1831Y-2.6335
X5.1831Y-2.7335
X5.1831Y-2.8335
X5.1831Y-2.9335
X5.1831Y-3.0335
X5.1831Y-3.1335
X5.1831Y-3.2335
X5.1831Y-3.3335
X5.1831Y-3.4335
X5.1831Y-3.5335
X5.1831Y-3.6335
X5.1831Y-3.7335
X5.1831Y-3.8335
X5.1831Y-3.9335
X5.1831Y-4.0335
X5.1831Y-4.1335
X5.1831Y-4.2335
X5.1831Y-4.3335
X5.1831Y-4.4335
X5.2831Y-1.5335
X5.2831Y-1.6335
X5.2831Y-1.7335
X5.2831Y-1.8335
X5.2831Y-1.9335
X5.2831Y-2.0335
X5.2831Y-2.1335
X5.2831Y-2.2335
X5.2831Y-2.3335
X5.2831Y-2.4335
X5.2831Y-2.5335
X5.2831Y-2.6335
X5.2831Y-2.7335
X5.2831Y-2.8335
X5.2831Y-2.9335
X5.2831Y-3.0335
X5.2831Y-3.1335
X5.2831Y-3.2335
X5.2831Y-3.3335
X5.2831Y-3.4335
X5.2831Y-3.5335
X5.2831Y-3.6335
X5.2831Y-3.7335
X5.2831Y-3.8335
X5.2831Y-3.9335
X5.2831Y-4.0335
X5.2831Y-4.1335
X5.2831Y-4.2335
X5.2831Y-4.3335
X5.2831Y-4.4335
T3
X4.8Y-1.48
X4.8Y-4.47
T0
M30
