%TF.GenerationSoftware,KiCad,Pcbnew,5.1.10-88a1d61d58~88~ubuntu20.04.1*%
%TF.CreationDate,2021-05-25T18:48:27+07:00*%
%TF.ProjectId,Hirose_DF40HC_60DS_V04_Header_Adapter,4869726f-7365-45f4-9446-343048435f36,rev?*%
%TF.SameCoordinates,Original*%
%TF.FileFunction,Legend,Top*%
%TF.FilePolarity,Positive*%
%FSLAX46Y46*%
G04 Gerber Fmt 4.6, Leading zero omitted, Abs format (unit mm)*
G04 Created by KiCad (PCBNEW 5.1.10-88a1d61d58~88~ubuntu20.04.1) date 2021-05-25 18:48:27*
%MOMM*%
%LPD*%
G01*
G04 APERTURE LIST*
%ADD10C,0.100000*%
%ADD11C,0.120000*%
%ADD12C,0.150000*%
%ADD13C,0.254000*%
G04 APERTURE END LIST*
D10*
%TO.C,J1*%
X119350000Y-69200000D02*
X119320000Y-68400000D01*
X119320000Y-68400000D02*
X116350000Y-68400000D01*
X116350000Y-68400000D02*
X116380000Y-69200000D01*
X119320000Y-82200000D02*
X119320000Y-83000000D01*
X119320000Y-83000000D02*
X116380000Y-83000000D01*
X116380000Y-83000000D02*
X116380000Y-82200000D01*
D11*
%TO.C,J2*%
X130320000Y-113940000D02*
X135520000Y-113940000D01*
X130320000Y-40220000D02*
X130320000Y-113940000D01*
X135520000Y-37620000D02*
X135520000Y-113940000D01*
X130320000Y-40220000D02*
X132920000Y-40220000D01*
X132920000Y-40220000D02*
X132920000Y-37620000D01*
X132920000Y-37620000D02*
X135520000Y-37620000D01*
X130320000Y-38950000D02*
X130320000Y-37620000D01*
X130320000Y-37620000D02*
X131650000Y-37620000D01*
%TO.C,H2*%
D12*
X121158095Y-109790380D02*
X121158095Y-108790380D01*
X121158095Y-109266571D02*
X121729523Y-109266571D01*
X121729523Y-109790380D02*
X121729523Y-108790380D01*
X122158095Y-108885619D02*
X122205714Y-108838000D01*
X122300952Y-108790380D01*
X122539047Y-108790380D01*
X122634285Y-108838000D01*
X122681904Y-108885619D01*
X122729523Y-108980857D01*
X122729523Y-109076095D01*
X122681904Y-109218952D01*
X122110476Y-109790380D01*
X122729523Y-109790380D01*
%TO.C,H1*%
X121158095Y-42244380D02*
X121158095Y-41244380D01*
X121158095Y-41720571D02*
X121729523Y-41720571D01*
X121729523Y-42244380D02*
X121729523Y-41244380D01*
X122729523Y-42244380D02*
X122158095Y-42244380D01*
X122443809Y-42244380D02*
X122443809Y-41244380D01*
X122348571Y-41387238D01*
X122253333Y-41482476D01*
X122158095Y-41530095D01*
%TO.C,J1*%
D13*
X117154523Y-76123333D02*
X118061666Y-76123333D01*
X118243095Y-76183809D01*
X118364047Y-76304761D01*
X118424523Y-76486190D01*
X118424523Y-76607142D01*
X118424523Y-74853333D02*
X118424523Y-75579047D01*
X118424523Y-75216190D02*
X117154523Y-75216190D01*
X117335952Y-75337142D01*
X117456904Y-75458095D01*
X117517380Y-75579047D01*
%TO.C,J2*%
D12*
X132586666Y-36072380D02*
X132586666Y-36786666D01*
X132539047Y-36929523D01*
X132443809Y-37024761D01*
X132300952Y-37072380D01*
X132205714Y-37072380D01*
X133015238Y-36167619D02*
X133062857Y-36120000D01*
X133158095Y-36072380D01*
X133396190Y-36072380D01*
X133491428Y-36120000D01*
X133539047Y-36167619D01*
X133586666Y-36262857D01*
X133586666Y-36358095D01*
X133539047Y-36500952D01*
X132967619Y-37072380D01*
X133586666Y-37072380D01*
%TD*%
M02*
