%TF.GenerationSoftware,KiCad,Pcbnew,5.1.10-88a1d61d58~88~ubuntu20.04.1*%
%TF.CreationDate,2021-05-25T18:48:27+07:00*%
%TF.ProjectId,Hirose_DF40HC_60DS_V04_Header_Adapter,4869726f-7365-45f4-9446-343048435f36,rev?*%
%TF.SameCoordinates,Original*%
%TF.FileFunction,Soldermask,Bot*%
%TF.FilePolarity,Negative*%
%FSLAX46Y46*%
G04 Gerber Fmt 4.6, Leading zero omitted, Abs format (unit mm)*
G04 Created by KiCad (PCBNEW 5.1.10-88a1d61d58~88~ubuntu20.04.1) date 2021-05-25 18:48:27*
%MOMM*%
%LPD*%
G01*
G04 APERTURE LIST*
%ADD10C,3.200000*%
%ADD11O,1.700000X1.700000*%
%ADD12R,1.700000X1.700000*%
G04 APERTURE END LIST*
D10*
%TO.C,H2*%
X121920000Y-113538000D03*
%TD*%
%TO.C,H1*%
X121920000Y-37592000D03*
%TD*%
D11*
%TO.C,J2*%
X134190000Y-112610000D03*
X131650000Y-112610000D03*
X134190000Y-110070000D03*
X131650000Y-110070000D03*
X134190000Y-107530000D03*
X131650000Y-107530000D03*
X134190000Y-104990000D03*
X131650000Y-104990000D03*
X134190000Y-102450000D03*
X131650000Y-102450000D03*
X134190000Y-99910000D03*
X131650000Y-99910000D03*
X134190000Y-97370000D03*
X131650000Y-97370000D03*
X134190000Y-94830000D03*
X131650000Y-94830000D03*
X134190000Y-92290000D03*
X131650000Y-92290000D03*
X134190000Y-89750000D03*
X131650000Y-89750000D03*
X134190000Y-87210000D03*
X131650000Y-87210000D03*
X134190000Y-84670000D03*
X131650000Y-84670000D03*
X134190000Y-82130000D03*
X131650000Y-82130000D03*
X134190000Y-79590000D03*
X131650000Y-79590000D03*
X134190000Y-77050000D03*
X131650000Y-77050000D03*
X134190000Y-74510000D03*
X131650000Y-74510000D03*
X134190000Y-71970000D03*
X131650000Y-71970000D03*
X134190000Y-69430000D03*
X131650000Y-69430000D03*
X134190000Y-66890000D03*
X131650000Y-66890000D03*
X134190000Y-64350000D03*
X131650000Y-64350000D03*
X134190000Y-61810000D03*
X131650000Y-61810000D03*
X134190000Y-59270000D03*
X131650000Y-59270000D03*
X134190000Y-56730000D03*
X131650000Y-56730000D03*
X134190000Y-54190000D03*
X131650000Y-54190000D03*
X134190000Y-51650000D03*
X131650000Y-51650000D03*
X134190000Y-49110000D03*
X131650000Y-49110000D03*
X134190000Y-46570000D03*
X131650000Y-46570000D03*
X134190000Y-44030000D03*
X131650000Y-44030000D03*
X134190000Y-41490000D03*
X131650000Y-41490000D03*
X134190000Y-38950000D03*
D12*
X131650000Y-38950000D03*
%TD*%
M02*
